<svg xmlns="http://www.w3.org/2000/svg" viewBox="0 0 440 140" width="440" height="140">
  <!-- Woven B icon -->
  <rect x="30" y="16" width="10" height="120" rx="5" fill="#0d6efd" opacity="0.85"/>
  <path d="M35 26 C66 26, 88 34, 88 52 C88 68, 66 76, 40 76" stroke="#0d6efd" stroke-width="8" fill="none" stroke-linecap="round"/>
  <path d="M35 36 C58 36, 74 42, 74 52 C74 62, 58 66, 40 66" stroke="#4d93fc" stroke-width="5" fill="none" stroke-linecap="round" opacity="0.65"/>
  <path d="M35 76 C72 76, 98 84, 98 102 C98 120, 72 130, 35 130" stroke="#0d6efd" stroke-width="8" fill="none" stroke-linecap="round"/>
  <path d="M35 86 C64 86, 84 92, 84 102 C84 114, 64 120, 35 120" stroke="#4d93fc" stroke-width="5" fill="none" stroke-linecap="round" opacity="0.65"/>
  <!-- "itloom" wordmark, bottom-aligned with icon -->
  <text x="105" y="130" font-family="Quicksand, sans-serif" font-size="96" letter-spacing="-1">
    <tspan font-weight="700" fill="#0d6efd">it</tspan><tspan font-weight="400" fill="#4d93fc">loom</tspan>
  </text>
</svg>
